<?xml version="1.0" encoding="utf-8"?>
<!-- Generator: Adobe Illustrator 26.3.1, SVG Export Plug-In . SVG Version: 6.00 Build 0)  -->
<svg version="1.1" id="Layer_1" xmlns="http://www.w3.org/2000/svg" xmlns:xlink="http://www.w3.org/1999/xlink" x="0px" y="0px"
	 viewBox="0 0 296 50.1" style="enable-background:new 0 0 296 50.1;" xml:space="preserve">
<style type="text/css">
	.st0{clip-path:url(#SVGID_00000026162914126298197200000018426501968759533228_);}
	.st1{fill:#131818;}
	.st2{fill:#FFFFFF;filter:url(#Adobe_OpacityMaskFilter);}
	.st3{mask:url(#mask0_879_1500_00000173160031232157627700000001670060452807195062_);}
	.st4{fill:#FFFFFF;filter:url(#Adobe_OpacityMaskFilter_00000116953307664697214560000010510886980684757411_);}
	.st5{mask:url(#mask1_879_1500_00000132064566952890960930000013362624019985556867_);}
	.st6{fill:#FF8200;}
</style>
<g>
	<defs>
		<rect id="SVGID_1_" x="0" width="296" height="50"/>
	</defs>
	<clipPath id="SVGID_00000042698151326111815260000001266676656299069865_">
		<use xlink:href="#SVGID_1_"  style="overflow:visible;"/>
	</clipPath>
	<g style="clip-path:url(#SVGID_00000042698151326111815260000001266676656299069865_);">
		<path class="st1" d="M73.9,16h5.2l4.1,11.2L87.6,16h5.3l3.1,21h-5.3l-1.5-12.1h-0.1L84.3,37h-2.1l-4.7-12.1h-0.1L75.7,37h-5.3
			L73.9,16z"/>
		<path class="st1" d="M102.4,20.6v3.5h6v4.6h-6v3.6h6.3V37H97.1V16h11.6v4.6H102.4z"/>
		<path class="st1" d="M116.1,32.4h1.2c3.2,0,5.8-1.8,5.8-5.9c0-3.8-2.4-5.9-5.8-5.9h-1.2V32.4z M110.8,16h7.5
			c5.7,0,10.3,4.6,10.3,10.5c0,5.9-4.7,10.5-10.3,10.5h-7.5V16z"/>
		<path class="st1" d="M130,37h5.3V16H130V37z"/>
		<path class="st1" d="M152.2,23c-1.1-1.5-2.8-2.3-4.6-2.3c-3.2,0-5.4,2.6-5.4,5.8c0,3.3,2.2,5.7,5.5,5.7c1.7,0,3.4-0.9,4.6-2.2v6.5
			c-1.8,0.6-3,1-4.7,1c-2.8,0-5.5-1.1-7.6-3.1c-2.2-2.1-3.3-4.8-3.3-7.9c0-2.9,1-5.6,3-7.7c2-2.1,4.9-3.4,7.7-3.4
			c1.7,0,3.3,0.4,4.8,1.1V23z"/>
		<path class="st1" d="M163.3,22.5L163.3,22.5l-2.2,6.7h4.4L163.3,22.5z M159.6,33.3l-1.4,3.6h-5.6l7.8-21h5.8l7.7,21h-5.6l-1.3-3.6
			H159.6z"/>
		<path class="st1" d="M179.6,32.4h6.3V37h-11.6V16h5.3V32.4z"/>
		<path class="st1" d="M209.3,23c-1.1-1.5-2.8-2.3-4.6-2.3c-3.2,0-5.4,2.6-5.4,5.8c0,3.3,2.2,5.7,5.5,5.7c1.7,0,3.4-0.9,4.6-2.2v6.5
			c-1.8,0.6-3,1-4.7,1c-2.8,0-5.5-1.1-7.6-3.1c-2.2-2.1-3.3-4.8-3.3-7.9c0-2.9,1.1-5.6,3-7.7c2-2.1,4.9-3.4,7.7-3.4
			c1.7,0,3.3,0.4,4.8,1.1V23z"/>
		<path class="st1" d="M216.8,20.6v3.5h6v4.6h-6v3.6h6.3V37h-11.6V16H223v4.6H216.8z"/>
		<path class="st1" d="M225.2,16h5.3l9.7,12.8h0.1V16h5.3v21h-5.3l-9.7-12.9h-0.1V37h-5.3V16z"/>
		<path class="st1" d="M256,37h-5.3V20.6h-4.4V16h14v4.6H256V37z"/>
		<path class="st1" d="M266.4,20.6v3.5h6v4.6h-6v3.6h6.3V37h-11.6V16h11.6v4.6H266.4z"/>
		<path class="st1" d="M280.2,25.4h0.5c1.7,0,3.7-0.3,3.7-2.6c0-2.3-1.9-2.6-3.7-2.6h-0.5V25.4z M291.8,37h-6.6l-5-8.1h-0.1V37h-5.3
			V16h7.9c4,0,7.1,2,7.1,6.5c0,2.9-1.6,5.4-4.4,5.9L291.8,37z"/>
		<path class="st1" d="M75.7,11.8h-2.9V2.9h-2.4V0.4h7.6v2.5h-2.4V11.8z"/>
		<path class="st1" d="M85.5,4.8V0.4h2.9v11.4h-2.9V7.1h-4.1v4.7h-2.9V0.4h2.9v4.4H85.5z"/>
		<path class="st1" d="M92.5,2.9v1.9h3.2v2.5h-3.2v2h3.4v2.5h-6.3V0.4h6.3v2.5H92.5z"/>
		<path class="st1" d="M111.1,0.4v6.4c0,1.5-0.1,2.9-1.2,4c-0.9,0.9-2.4,1.3-3.7,1.3c-1.3,0-2.7-0.3-3.7-1.3c-1.1-1.1-1.2-2.6-1.2-4
			V0.4h2.9v6c0,1.5,0.1,3.1,1.9,3.1c1.8,0,1.9-1.6,1.9-3.1v-6H111.1z"/>
		<path class="st1" d="M112.3,0.4h2.9l5.2,7h0v-7h2.9v11.4h-2.9l-5.2-7h0v7h-2.9V0.4z"/>
		<path class="st1" d="M124.6,11.8h2.9V0.4h-2.9V11.8z"/>
		<path class="st1" d="M133.4,7.3l2.7-6.9h3.1l-4.7,11.4h-2.2l-4.6-11.4h3.1L133.4,7.3z"/>
		<path class="st1" d="M142.2,2.9v1.9h3.2v2.5h-3.2v2h3.4v2.5h-6.3V0.4h6.3v2.5H142.2z"/>
		<path class="st1" d="M149.6,5.5h0.3c0.9,0,2-0.2,2-1.4c0-1.2-1.1-1.4-2-1.4h-0.3V5.5z M155.9,11.8h-3.6l-2.7-4.4h0v4.4h-2.9V0.4
			h4.3c2.2,0,3.8,1.1,3.8,3.5c0,1.6-0.8,2.9-2.4,3.2L155.9,11.8z"/>
		<path class="st1" d="M162.1,3.3c-0.5-0.5-1.2-0.8-1.9-0.8c-0.5,0-1.2,0.3-1.2,1c0,0.7,0.8,0.9,1.3,1.1l0.7,0.2
			c1.5,0.5,2.7,1.3,2.7,3.1c0,1.1-0.3,2.3-1.1,3.1c-0.9,0.8-2,1.1-3.1,1.1c-1.4,0-2.7-0.5-3.9-1.3l1.2-2.4c0.7,0.7,1.6,1.2,2.5,1.2
			c0.7,0,1.4-0.3,1.4-1.1c0-0.8-1.1-1.1-1.7-1.3c-1.8-0.5-3-1-3-3.2c0-2.3,1.6-3.8,3.8-3.8c1.1,0,2.5,0.4,3.4,0.9L162.1,3.3z"/>
		<path class="st1" d="M164.5,11.8h2.9V0.4h-2.9V11.8z"/>
		<path class="st1" d="M173,11.8h-2.9V2.9h-2.4V0.4h7.6v2.5H173V11.8z"/>
		<path class="st1" d="M174.6,0.4h3.4l2.1,3.1l2.1-3.1h3.4l-4.1,5.9v5.5h-2.9V6.3L174.6,0.4z"/>
		<path class="st1" d="M191.8,5.9c0,2,1.4,3.4,3.1,3.4c1.7,0,3.1-1.4,3.1-3.4c0-1.6-1.4-3-3.1-3C193.2,2.9,191.8,4.3,191.8,5.9z
			 M201,5.9c0,3.7-2.6,6.3-6.1,6.3c-3.5,0-6.1-2.6-6.1-6.3c0-3.4,2.9-5.9,6.1-5.9C198.1,0,201,2.4,201,5.9z"/>
		<path class="st1" d="M204.6,2.9v1.9h3.1v2.5h-3.1v4.5h-2.9V0.4h6.3v2.5H204.6z"/>
		<path class="st1" d="M217.9,11.8h-2.9V2.9h-2.4V0.4h7.6v2.5h-2.4V11.8z"/>
		<path class="st1" d="M223.6,2.9v1.9h3.2v2.5h-3.2v2h3.4v2.5h-6.3V0.4h6.3v2.5H223.6z"/>
		<path class="st1" d="M228.2,0.4h2.9l5.2,7h0v-7h2.9v11.4h-2.9l-5.2-7h0v7h-2.9V0.4z"/>
		<path class="st1" d="M240.5,0.4h2.9l5.2,7h0v-7h2.9v11.4h-2.9l-5.2-7h0v7h-2.9V0.4z"/>
		<path class="st1" d="M255.6,2.9v1.9h3.2v2.5h-3.2v2h3.4v2.5h-6.3V0.4h6.3v2.5H255.6z"/>
		<path class="st1" d="M266.3,3.3c-0.5-0.5-1.2-0.8-1.9-0.8c-0.5,0-1.2,0.3-1.2,1c0,0.7,0.8,0.9,1.3,1.1l0.7,0.2
			c1.5,0.5,2.7,1.3,2.7,3.1c0,1.1-0.3,2.3-1.1,3.1c-0.9,0.8-2,1.1-3.1,1.1c-1.4,0-2.7-0.5-3.9-1.3l1.2-2.4c0.7,0.7,1.6,1.2,2.5,1.2
			c0.7,0,1.4-0.3,1.4-1.1c0-0.8-1.1-1.1-1.7-1.3c-1.8-0.5-3-1-3-3.2c0-2.3,1.6-3.8,3.8-3.8c1.1,0,2.5,0.4,3.4,0.9L266.3,3.3z"/>
		<path class="st1" d="M274.7,3.3c-0.5-0.5-1.2-0.8-1.9-0.8c-0.5,0-1.2,0.3-1.2,1c0,0.7,0.8,0.9,1.3,1.1l0.7,0.2
			c1.5,0.5,2.7,1.3,2.7,3.1c0,1.1-0.3,2.3-1.1,3.1c-0.9,0.8-2,1.1-3.1,1.1c-1.4,0-2.7-0.5-3.9-1.3l1.2-2.4c0.7,0.7,1.6,1.2,2.5,1.2
			c0.7,0,1.4-0.3,1.4-1.1c0-0.8-1.1-1.1-1.7-1.3c-1.8-0.5-3-1-3-3.2c0-2.3,1.6-3.8,3.8-3.8c1.1,0,2.5,0.4,3.4,0.9L274.7,3.3z"/>
		<path class="st1" d="M279.9,4.8h3.2v2.5h-3.2v2h3.4v2.5H277V0.4h6.3v2.5h-3.4V4.8z"/>
		<defs>
			<filter id="Adobe_OpacityMaskFilter" filterUnits="userSpaceOnUse" x="284.5" y="0.4" width="6.3" height="11.4">
				<feColorMatrix  type="matrix" values="1 0 0 0 0  0 1 0 0 0  0 0 1 0 0  0 0 0 1 0"/>
			</filter>
		</defs>
		
			<mask maskUnits="userSpaceOnUse" x="284.5" y="0.4" width="6.3" height="11.4" id="mask0_879_1500_00000173160031232157627700000001670060452807195062_">
			<path class="st2" d="M0,0.4h290.7V37H0V0.4z"/>
		</mask>
		<g class="st3">
			<path class="st1" d="M287.3,4.8h3.2v2.5h-3.2v2h3.4v2.5h-6.3V0.4h6.3v2.5h-3.4V4.8z"/>
		</g>
		<defs>
			
				<filter id="Adobe_OpacityMaskFilter_00000035508562528829934100000012104543587795200133_" filterUnits="userSpaceOnUse" x="0" y="0.4" width="35.5" height="36.6">
				<feColorMatrix  type="matrix" values="1 0 0 0 0  0 1 0 0 0  0 0 1 0 0  0 0 0 1 0"/>
			</filter>
		</defs>
		
			<mask maskUnits="userSpaceOnUse" x="0" y="0.4" width="35.5" height="36.6" id="mask1_879_1500_00000132064566952890960930000013362624019985556867_">
			<path style="fill:#FFFFFF;filter:url(#Adobe_OpacityMaskFilter_00000035508562528829934100000012104543587795200133_);" d="
				M0,0.4h290.7V37H0V0.4z"/>
		</mask>
		<g class="st5">
			<path class="st6" d="M0,0.4v27.5c0,0,0.7,9.1,9,9.1c8.3,0,17.1,0.1,17.1,0.1l9.4-9.8V0.4H23.8c0,0-0.5,0.7-0.5,1.6
				c0,0-0.1,1.4-1.2,1.9c-0.8,0.4-2.3,1-2.6,1.6c-0.3,0.6-0.9,2.5-1.6,3C17.3,9,16,9.3,15.2,10.2c-0.8,0.9-1.6,2.4-1.6,3.2h11
				c0,0,0.8,0.2,0.9,1.4c0.1,1.2,0,10.4,0,10.4H13.8c0,0-2.2-0.6-2.2-2.6c0-1.9,0.1-22.3,0.1-22.3H0z"/>
		</g>
		<path class="st6" d="M37.4,0.4V37h10.2v-23c0,0,0.2-0.6,0.9-0.6c0.6,0,5.7,0,5.7,0s1.5-1,1.6-2.6c0,0,0.4-1.3,1.6-1.8
			c1.2-0.6,2.4-1.1,3-3c0.8-2.4,4-1,4.3-5.6H37.4z"/>
		<path class="st1" d="M0.1,50.1h291.3v-2H0.1V50.1z"/>
		<path class="st1" d="M293.9,2h0.2c0.2,0,0.4-0.1,0.4-0.2c0-0.2-0.1-0.3-0.3-0.3c-0.1,0-0.2,0-0.2,0V2z M293.8,2.9h-0.4V1.3
			c0.1,0,0.4-0.1,0.6-0.1c0.3,0,0.4,0.1,0.6,0.1c0.1,0.1,0.2,0.2,0.2,0.4c0,0.2-0.1,0.3-0.3,0.4v0c0.2,0.1,0.2,0.2,0.3,0.4
			c0,0.3,0.1,0.4,0.1,0.4h-0.4c0-0.1-0.1-0.2-0.1-0.4c0-0.2-0.1-0.3-0.3-0.3h-0.2V2.9z M292.9,2c0,0.7,0.5,1.3,1.3,1.3
			c0.7,0,1.2-0.6,1.2-1.3c0-0.7-0.5-1.3-1.2-1.3C293.4,0.7,292.9,1.3,292.9,2z M295.7,2c0,0.9-0.7,1.7-1.6,1.7
			c-0.9,0-1.7-0.7-1.7-1.7c0-0.9,0.7-1.7,1.7-1.7C295,0.4,295.7,1.1,295.7,2z"/>
	</g>
</g>
</svg>
